<?xml version="1.0" standalone="no"?>
<!DOCTYPE svg PUBLIC "-//W3C//DTD SVG 1.1//EN" "http://www.w3.org/Graphics/SVG/1.1/DTD/svg11.dtd" >
<svg xmlns="http://www.w3.org/2000/svg">
<metadata>
<json>
<![CDATA[
{
	"fontFamily": "AkusaIcon",
	"majorVersion": 1,
	"minorVersion": 0,
	"designer": "Alaska USA Federal Credit Union",
	"version": "Version 1.0",
	"fontId": "AkusaIcon",
	"psName": "AkusaIcon",
	"subFamily": "Regular",
	"fullName": "AkusaIcon",
	"description": "Font generated by IcoMoon."
}
]]>
</json>
</metadata>
<defs>
<font id="AkusaIcon" horiz-adv-x="1024">
<font-face units-per-em="1024" ascent="960" descent="-64" />
<missing-glyph horiz-adv-x="1024" />
<glyph unicode="&#x20;" horiz-adv-x="0" d="" />
<glyph unicode="&#xe600;" glyph-name="Blog" data-tags="Blog" d="M1023.999 448c0-281.6-230.399-511.999-511.999-511.999s-511.999 230.399-511.999 511.999 230.399 511.999 511.999 511.999 511.999-230.399 511.999-511.999zM460.8 566.399c44.8 0 86.4-19.2 118.399-48 32-32 48-73.6 48-118.399h70.4c0 131.199-105.599 239.999-236.799 239.999v-73.6zM460.8 691.199c159.999 0 291.2-131.199 291.2-291.2h70.4c0 198.398-163.199 361.599-361.599 361.599v-70.4zM531.2 470.4c-28.8 28.8-64 41.6-108.799 41.6-12.8 0-25.6-3.2-32-12.8s-12.8-19.2-12.8-32c0-12.8 3.2-22.4 12.8-32s19.2-16 32-16c19.2 0 35.2-6.4 44.8-16 12.8-9.6 16-25.6 16-41.6 0-19.2-6.4-35.2-19.2-44.8-12.8-12.8-25.6-19.2-44.8-19.2-16 0-32 6.4-44.8 19.2s-19.2 28.8-19.2 44.8v223.998c0 16-3.2 25.6-12.8 35.2s-19.2 12.8-32 12.8c-12.8 0-22.4-3.2-32-12.8s-12.8-19.2-12.8-35.2v-223.998c0-44.8 16-80 44.8-111.999s64-44.8 108.799-44.8c41.6 0 76.8 16 105.599 48s44.8 67.2 44.8 111.999c3.2 41.6-9.6 76.8-38.4 105.599z" />
<glyph unicode="&#xe601;" glyph-name="Facebook" data-tags="Facebook" d="M1023.999 448c0-281.6-230.399-511.999-511.999-511.999s-511.999 230.399-511.999 511.999 230.399 511.999 511.999 511.999 511.999-230.399 511.999-511.999zM655.999 540.8h-105.599v76.8c0 22.4 25.6 28.8 35.2 28.8 12.8 0 67.2 0 67.2 0v105.599h-76.8c-105.599 0-131.199-76.8-131.199-127.999v-83.2h-76.8v-105.599h76.8c0-137.599 0-288 0-288h105.599c0 0 0 153.599 0 288h89.6l16 105.599z" />
<glyph unicode="&#xe602;" glyph-name="LinkedIn" data-tags="LinkedIn" d="M512 959.999c-281.6 0-511.999-230.399-511.999-511.999s230.399-511.999 511.999-511.999 511.999 230.399 511.999 511.999c0 281.6-230.399 511.999-511.999 511.999zM425.6 243.202v0h-102.4v268.8h102.4v-268.8zM425.6 591.999c0-3.2 0-3.2 0-6.4s0-3.2-3.2-6.4c0-3.2-3.2-3.2-3.2-6.4s-3.2-3.2-3.2-6.4c0-3.2-3.2-3.2-3.2-6.4-3.2-3.2-3.2-3.2-6.4-3.2s-3.2-3.2-6.4-3.2c-3.2 0-3.2-3.2-6.4-3.2s-3.2-3.2-6.4-3.2c-3.2 0-9.6 0-12.8 0v0c-3.2 0-6.4 0-6.4 0-3.2 0-6.4 0-6.4 0-3.2 0-3.2 0-6.4 3.2-6.4 3.2-12.8 6.4-16 12.8-3.2 3.2-6.4 6.4-9.6 12.8-9.6-3.2-9.6 0-9.6 0 0 3.2 0 3.2-3.2 6.4 0 3.2 0 3.2 0 6.4s0 3.2 0 6.4 0 6.4 0 9.6c0 3.2 0 6.4 3.2 9.6 0 3.2 3.2 6.4 6.4 9.6s3.2 6.4 6.4 9.6c3.2 3.2 6.4 6.4 9.6 9.6s9.6 3.2 12.8 6.4c3.2 0 3.2 0 6.4 0s3.2 0 6.4 0 6.4 0 9.6 0c3.2 0 6.4 0 9.6-3.2 3.2 0 6.4-3.2 9.6-3.2 3.2-3.2 6.4-3.2 9.6-6.4s6.4-6.4 6.4-9.6c3.2-3.2 3.2-6.4 3.2-9.6s0-3.2 3.2-6.4c0-3.2 0-6.4 0-6.4 0-3.2 0-6.4 0-6.4 6.4-3.2 6.4-6.4 6.4-6.4zM751.999 243.202v0h-102.4v124.799c0 28.8-3.2 48-3.2 57.6-3.2 6.4-6.4 12.8-12.8 16-3.2 3.2-6.4 3.2-9.6 3.2 0 0-3.2 0-3.2 0-3.2 0-3.2 0-6.4 0s-3.2 0-6.4 0c0 0-3.2 0-3.2 0-3.2 0-6.4 0-9.6-3.2-3.2 0-6.4-3.2-9.6-6.4s-6.4-3.2-6.4-6.4-3.2-6.4-6.4-6.4-3.2-6.4-3.2-9.6v0-6.4l-3.2-41.6v-121.599h-99.2v268.8h96v-32c3.2 3.2 9.6 6.4 12.8 9.6s9.6 6.4 12.8 6.4c3.2 3.2 9.6 3.2 12.8 6.4s9.6 3.2 16 3.2c6.4 0 9.6 3.2 16 3.2s9.6 0 16 0h9.6l16-3.2c3.2 0 6.4 0 9.6 0s6.4 0 6.4-3.2c3.2 0 6.4-3.2 6.4-3.2v0c16-6.4 28.8-16 35.2-25.6v0c3.2-3.2 3.2-6.4 6.4-9.6s3.2-6.4 3.2-9.6c0-3.2 3.2-6.4 3.2-9.6 0 0 0-3.2 0-3.2 0-3.2 0-3.2 0-6.4v0c0-3.2 0-6.4 3.2-9.6 0-3.2 0-6.4 0-12.8 0-3.2 0-9.6 0-12.8 0-6.4 0-9.6 0-16v-140.799z" />
<glyph unicode="&#xe603;" glyph-name="Twitter" data-tags="Twitter" d="M512 959.999c-281.6 0-511.999-230.399-511.999-511.999s230.399-511.999 511.999-511.999c281.6 0 511.999 230.399 511.999 511.999s-230.399 511.999-511.999 511.999zM665.599 236.802c-9.6-9.6-25.6-16-38.4-16h-115.199c-48 0-86.4 16-118.399 51.2-32 32-51.2 73.6-51.2 121.599v233.599c0 16 6.4 28.8 16 38.4s22.4 16 38.4 16c16 0 28.8-6.4 38.4-16s16-22.4 16-38.4v-83.2c0 0 0-3.2 0-3.2s0 0 3.2 0h163.199c12.8 0 25.6-6.4 35.2-16s16-22.4 16-35.2c0-12.8-6.4-25.6-16-35.2s-22.4-16-35.2-16h-163.199c0 0-3.2 0-3.2 0s0 0 0-3.2v-41.6c0-16 6.4-32 19.2-41.6 12.8-12.8 25.6-19.2 41.6-19.2h115.199c16 0 28.8-6.4 38.4-16s16-22.4 16-38.4c0-19.2-6.4-32-16-41.6z" />
<glyph unicode="&#xe604;" glyph-name="locations" data-tags="locations" d="M512 896.002c-246.402 0-448.002-201.601-448.002-448.002s201.601-448.002 448.002-448.002c246.402 0 448.002 201.601 448.002 448.002s-201.601 448.002-448.002 448.002zM512 69.998c-210.001 0-378.002 168-378.002 378.002s168 378.002 378.002 378.002c210.001 0 378.002-168 378.002-378.002s-168-378.002-378.002-378.002zM470 406l61.6-182 204.401 448.002-448.002-204.401 182-61.6zM498 434l-137.2 44.8 336.002 154-198.801-198.801z" />
<glyph unicode="&#xe605;" glyph-name="search" data-tags="search" d="M893.332 136.001l-197.599 197.599c-3.467 3.467-3.467 3.467-6.933 6.933 34.667 52 52 114.4 52 180.266 0 180.266-149.066 329.332-329.332 329.332s-329.332-149.066-329.332-329.332c0-180.266 149.066-329.332 329.332-329.332 65.866 0 128.266 20.8 180.266 52 3.467-3.467 3.467-3.467 6.933-6.933l197.599-197.599c13.867-13.867 31.2-20.8 48.533-20.8s34.667 6.933 48.533 20.8c24.267 27.733 24.267 72.8 0 97.066zM411.467 295.467c-124.8 0-225.333 100.533-225.333 225.333s100.533 225.333 225.333 225.333 225.333-100.533 225.333-225.333c0-124.8-104-225.333-225.333-225.333z" />
<glyph unicode="&#xe606;" glyph-name="lock2" data-tags="lock2" d="M775.466 503.466v104c0 0 0 242.666-242.666 242.666s-242.666-242.666-242.666-242.666v-104h-104v-485.332h693.331v485.332h-104zM567.466 236.534v-114.4h-69.333v114.4c-20.8 10.4-34.667 34.667-34.667 58.933 0 38.133 31.2 69.333 69.333 69.333s69.333-31.2 69.333-69.333c0-24.267-17.333-48.533-34.667-58.933zM706.133 503.466h-346.665v104c0 27.733 10.4 173.333 173.333 173.333s173.333-145.6 173.333-173.333v-104z" />
<glyph unicode="&#xe607;" glyph-name="phone" data-tags="phone" d="M781.577 20.94c20.422 0 196.055 130.705 196.055 147.041s-200.14 142.957-216.478 142.957c-16.337 0-73.521-69.436-89.858-77.606s-114.365-4.085-220.562 102.113c-110.283 110.283-147.041 232.816-147.041 253.239s89.858 81.691 93.943 93.943c4.085 12.255-118.449 224.647-138.874 224.647s-171.548-183.804-171.548-196.055c0-16.337 12.255-212.395 261.408-457.464 249.154-249.154 412.534-232.816 432.957-232.816z" />
<glyph unicode="&#xe608;" glyph-name="rates" data-tags="rates" d="M82.144 401.78v-388.256h143.286v466.832l-110.93-110.93zM322.494 577.418v-563.896h147.908v420.612l-143.286 147.908zM562.844 341.692v-328.17h143.286v425.234l-120.174-120.174zM914.122 655.994l-106.308-106.308v-536.164h147.908v545.408h-41.6zM789.326 845.502v-46.22h87.82l-277.326-277.326-272.706 277.326-291.194-291.194 69.332-64.708 221.862 221.862 272.706-272.706 342.034 342.034v-115.552h46.22v226.482z" />
<glyph unicode="&#xe609;" glyph-name="Youtube" data-tags="Youtube" d="M457.6 380.8l140.799 73.6-140.799 73.6zM512 959.999c-281.601 0-511.999-230.4-511.999-511.999s230.4-511.999 511.999-511.999c281.601 0 511.999 230.4 511.999 511.999s-230.4 511.999-511.999 511.999zM771.201 428.8c0-41.6-6.4-83.2-6.4-83.2s-6.4-35.2-19.2-51.2c-19.2-19.2-41.6-22.4-51.2-22.4-73.6-6.4-182.399-6.4-182.399-6.4s-134.399 0-175.999 6.4c-12.8 3.2-38.4 0-57.6 22.4-16 12.8-22.4 51.2-22.4 51.2s-6.4 41.6-6.4 83.2v38.4c0 41.6 6.4 83.2 6.4 83.2s6.4 35.2 19.2 51.2c19.2 19.2 41.6 22.4 51.2 22.4 73.6 6.4 182.399 6.4 182.399 6.4v0c0 0 108.8 0 182.399-6.4 9.6 0 32 0 51.2-22.4 16-16 19.2-51.2 19.2-51.2s6.4-41.6 6.4-83.2v-38.4z" />
<glyph unicode="&#xe60a;" glyph-name="up" data-tags="up" d="M499.25 460.75l-433.531-420.779c0 0 0-12.75 0-12.75s12.75 0 12.75 0h204.014l216.763 216.763c0 0 12.75 0 25.5 0l216.763-216.763h204.014c0 0 12.75 0 12.75 0s0 12.75 0 12.75l-433.531 420.779c-12.75 0-12.75 0-25.5 0zM499.25 881.531l-433.531-433.531c0 0 0-12.75 0-12.75s12.75 0 12.75 0h204.014l216.763 216.763c0 0 12.75 0 25.5 0l216.763-216.763h204.014c0 0 12.75 0 12.75 0s0 12.75 0 12.75l-433.531 420.779c-12.75 12.75-12.75 12.75-25.5 12.75z" />
<glyph unicode="&#xe60b;" glyph-name="right" data-tags="right" d="M524.34 460.34l-407.283 419.625c0 0-12.34 0-12.34 0s0-12.34 0-12.34v-197.471l209.811-209.811c0 0 0-12.34 0-24.68l-209.811-209.811v-197.471c0 0 0-12.34 0-12.34s12.34 0 12.34 0l407.283 419.625c0 12.34 0 12.34 0 24.68zM931.625 460.34l-419.625 419.625c0 0-12.34 0-12.34 0s0-12.34 0-12.34v-197.471l209.811-209.811c0 0 0-12.34 0-24.68l-209.811-209.811v-197.471c0 0 0-12.34 0-12.34s12.34 0 12.34 0l407.283 419.625c12.34 12.34 12.34 12.34 12.34 24.68z" />
<glyph unicode="&#xe60c;" glyph-name="down" data-tags="down" d="M524.75 435.25l433.531 420.779c0 0 0 12.75 0 12.75s-12.75 0-12.75 0h-204.014l-216.763-216.763c0 0-12.75 0-25.5 0l-216.763 216.763h-204.014c0 0-12.75 0-12.75 0s0-12.75 0-12.75l433.531-420.779c12.75 0 12.75 0 25.5 0zM524.75 14.469l433.531 420.779c0 0 0 12.75 0 12.75s-12.75 0-12.75 0h-204.014l-216.763-216.763c0 0-12.75 0-25.5 0l-216.763 216.763h-204.014c0 0-12.75 0-12.75 0s0-12.75 0-12.75l433.531-420.779c12.75 0 12.75 0 25.5 0z" />
<glyph unicode="&#xe60d;" glyph-name="left" data-tags="left" d="M499.66 435.66l407.283-419.625c0 0 12.34 0 12.34 0s0 12.34 0 12.34v197.471l-209.811 209.811c0 0 0 12.34 0 24.68l209.811 209.811v197.471c0 0 0 12.34 0 12.34s-12.34 0-12.34 0l-407.283-419.625c0-12.34 0-12.34 0-24.68zM92.375 435.66l407.283-419.625c0 0 12.34 0 12.34 0s0 12.34 0 12.34v197.471l-209.811 209.811c0 0 0 12.34 0 24.68l209.811 209.811v197.471c0 0 0 12.34 0 12.34s-12.34 0-12.34 0l-407.283-419.625c0-12.34 0-12.34 0-24.68z" />
<glyph unicode="&#xe60e;" glyph-name="at" data-tags="at" horiz-adv-x="921" d="M596.987 586.998h33l-41-291.001c-6-45-8-78-5-99 2-22 12-33 29-33s35 6 52 17c17 11 33 28 47 50 13 22 24 49 33 81 8 32 12 69 12 110 0 47-7 89-20 125-14 35-33 65-57 89-25 24-54 42-89 55-35 12-73 18-115 18-43 0-84-9-122-26-38-18-71-43-99-76s-50-72-66-117.001c-17-45-25-96-25-152 0-58 8-108 23-151s36-78 63-107c27-29 60-50 97.001-64s79-21 124-21c16 0 35 2 56 6s39 10 54 18l18-56c-23-11-45-18-67-22-23-5-46-7-71-7-49 0-95 8-138 23-44 15-82 39-115 72-33 32-60 73-79 124-19 50-29 110-29 179s10 130 31 185c20 54 47 100 82 137 34 37 74 66 120 86s95 30 146.001 30c49 0 95-7 137-22 41-15 77-37 108-66s55-66 72-109c17-43 25-94 25-151 0-46-6-89-18-128s-28-73-48-102c-21-29-44-51-71-67-27-17-56-25-87-25-13 0-24 2-34 5-11 3-19 9-25 17-7 8-11 19-14 32s-3 30 0 49h-4c-7-13-16-26-26-38-10-13-21-24-32-33-12-10-25-18-38-23-14-6-28-9-43-9-28 0-52 13-71 38-20 25-30 61-30 108 0 49 6 95 17 138s26 80 45 111c19 31 41 56 66 74 25 17 52 26 81 26 19 0 35-3 48-10 12-7 24-16 35-27M550.987 495.998c-9 12-17 21-26 26s-21 8-34 8c-20 0-39-7-56-22s-32-35-45-60c-13-25-23-54-30-86s-11-65-11-99c0-30 5-54 14-71 9-18 24-27 45-27 10 0 20 4 31 11s21 17 32 29c10 11 20 24 29 39s17 29 24 44z" />
<glyph unicode="&#xe900;" glyph-name="openAccount2" data-tags="openAccount2" horiz-adv-x="908" d="M863.681 272.159l-44.792 7.317c-5.322 30.157-17.518 58.761-35.479 84.927l19.957 54.105c4.657 12.639-2.439 21.952-15.965 20.4l-68.74-7.539c-64.305 48.561-153.223 78.718-251.011 78.718-194.91 0-354.564-119.518-354.564-265.867 0-0.222 0-0.665 0-0.887-25.057-6.209-58.983-7.096-78.496 25.057-7.096 11.531-9.091 6.874-9.313 3.548 0 0 1.996-107.988 102.444-102.888 13.083-33.039 34.592-63.418 62.531-89.583v-125.505h75.614l30.822 57.874c50.779-21.065 109.097-33.261 170.962-33.261s120.184 12.196 170.962 33.261l30.822-57.874h75.614v125.727c11.087 10.644 21.287 21.731 30.379 33.483l60.757-9.757c11.974-1.996 23.283 6.209 25.278 18.183l20.4 125.727c2.217 11.531-6.209 23.061-18.183 24.835zM599.588 404.095c-3.77-11.531-15.965-17.739-27.496-13.97-66.744 21.731-142.136 21.731-208.658 0-2.217-0.665-4.435-1.109-6.874-1.109-9.091 0-17.739 5.765-20.622 15.078-3.77 11.531 2.439 23.726 13.97 27.496 75.392 24.613 160.319 24.613 235.711 0 11.531-3.77 17.739-16.187 13.97-27.496zM722.21 266.172c-15.965 0-29.048 13.083-29.048 29.048s13.083 29.048 29.048 29.048c15.965 0 29.048-13.083 29.048-29.048 0-16.187-13.083-29.048-29.048-29.048zM453.904 942.261c-103.775 0-188.036-84.262-188.036-188.036s84.262-188.036 188.036-188.036 188.036 84.262 188.036 188.036c0 103.775-84.262 188.036-188.036 188.036zM562.335 737.594h-90.692v-94.905h-35.257v94.905h-90.692v34.37h90.692v94.018h35.257v-94.018h90.692v-34.37z" />
<glyph unicode="&#xe901;" glyph-name="home" data-tags="home" d="M1024 369.556l-512 397.426-512-397.428v162.038l512 397.426 512-397.428zM896 384v-384h-256v256h-256v-256h-256v384l384 288z" />
<glyph unicode="&#xe902;" glyph-name="MakePayment" data-tags="MakePayment" horiz-adv-x="813" d="M652.387 385.966v505.125h-604.151v-852.328h386.053c32.585-21.3 71.44-33.845 112.811-33.845 112.811 0 205.566 91.496 205.566 205.566-1.247 73.947-41.365 140.383-100.279 175.479zM209.929 795.827h348.455v-40.105h-348.455v40.105zM208.675 679.259h350.962v-40.105h-350.962v40.105zM559.632 550.16v-40.105h-350.962v40.105h350.962zM127.206 795.827h53.904v-40.105h-53.904v40.105zM125.957 679.259h53.904v-40.105h-53.904v40.105zM181.106 550.16v-40.105h-53.904v40.105h53.904zM238.753 155.336c-10.027-8.767-21.3-13.793-36.348-16.287v-28.826h-31.335v28.826c-13.793 2.507-26.325 8.767-37.608 17.545-12.533 11.274-20.053 25.065-20.053 38.858v7.52h30.086v-2.507c0-12.533 3.754-21.3 11.274-27.573s17.545-10.027 31.335-10.027c13.793 0 23.813 3.754 31.335 10.027s11.274 15.040 11.274 26.325c0 10.027-3.754 16.287-10.027 22.56-7.52 6.273-20.053 11.274-37.608 15.040-20.053 5.013-35.092 11.274-43.868 21.3-10.027 10.027-15.040 21.3-15.040 36.348 0 16.287 6.273 30.086 18.794 41.365 8.767 7.52 18.794 12.533 31.335 13.793v25.065h31.335v-25.065c13.793-2.507 25.065-6.273 35.092-15.040 12.533-10.027 18.794-25.065 20.053-42.618v-3.754h-31.335v2.507c-1.247 11.274-5.013 20.053-11.274 25.065s-15.040 7.52-26.325 7.52c-12.533 0-21.3-2.507-27.573-8.767-6.273-5.013-10.027-12.533-10.027-22.56 0-8.767 2.507-15.040 8.767-20.053s16.287-10.027 31.335-13.793c22.56-5.013 38.858-12.533 50.138-22.56s16.287-22.56 16.287-38.858c1.247-15.040-6.273-30.086-20.053-41.365zM547.095 46.283c-90.249 0-164.199 73.947-164.199 164.199s73.947 164.199 164.199 164.199c90.249 0 164.199-73.947 164.199-164.199 0-91.496-73.947-164.199-164.199-164.199zM663.671 269.394l-21.3 21.3c-3.754 3.754-10.027 3.754-13.793 0l-115.313-115.313-58.917 60.164c-3.754 3.754-10.027 3.754-13.793 0l-21.3-21.3c-3.754-3.754-3.754-10.027 0-13.793l86.483-87.736c3.754-3.754 10.027-3.754 13.793 0l142.889 142.889c5.013 3.754 5.013 10.027 1.247 13.793z" />
<glyph unicode="&#xe903;" glyph-name="getQuote" data-tags="getQuote" horiz-adv-x="1005" d="M235.574 109.402c2.552-2.552 6.386-2.552 8.95 0l95.822 95.822c2.552 2.552 2.552 6.386 0 8.95l-14.054 14.054c-2.552 2.552-6.386 2.552-8.95 0l-77.936-77.936-39.608 39.608c-2.552 2.552-6.386 2.552-8.95 0l-14.054-14.054c-2.552-2.552-2.552-6.386 0-8.95l58.778-57.483zM425.956 279.345v155.873l352.637 352.637v111.158h-705.281v-902.039h526.401l178.879 200.595v278.537l-196.761-196.761h-155.873zM355.68 78.744h-204.429v204.429h204.429v-204.429zM355.68 345.783h-204.429v204.429h204.429v-204.429zM355.68 614.086h-204.429v204.429h204.429v-204.429zM924.246 707.357c-17.886 17.886-68.985 68.985-68.985 68.985s-17.886 17.886-34.505 0c-2.552-2.552-12.783-12.783-26.837-26.837l104.772-104.772 26.837 26.837c-1.282 1.282 15.336 19.169-1.282 35.774zM464.272 422.437v-104.772h104.772l302.806 302.806-104.772 104.772c-98.374-99.656-302.806-302.806-302.806-302.806zM569.044 447.991l-16.605 16.605 190.378 190.378 16.605-16.605-190.378-190.378z" />
<glyph unicode="&#xe904;" glyph-name="Chat" data-tags="Chat" horiz-adv-x="1001" d="M511.575 786.654c-234.631 0-392.289-119.982-392.289-298.583 0-88.296 36.825-162.294 106.882-215.658-24.151-57.653-57.151-102.091-94.169-126.319-7.706-5.101-12.718-13.732-12.718-23.533 0-15.536 12.595-28.131 28.131-28.131 0.015 0 0.031 0 0.046 0h1.621c127.749 7.381 215.658 57.653 269.254 102.014 27.709-4.427 59.656-6.957 92.194-6.957 0.396 0 0.792 0 1.187 0.001h-0.062c234.67 0 392.327 119.789 392.327 298.544s-157.735 298.622-392.405 298.622zM339.041 434.282c-29.344 0-53.132 23.788-53.132 53.132s23.788 53.132 53.132 53.132c29.344 0 53.132-23.788 53.132-53.132v0c-0.022-29.335-23.797-53.11-53.13-53.132h-0.002zM511.575 434.282c-29.344 0-53.132 23.788-53.132 53.132s23.788 53.132 53.132 53.132c29.344 0 53.132-23.788 53.132-53.132v0c-0.022-29.335-23.797-53.11-53.13-53.132h-0.002zM684.148 434.282c-0.011 0-0.025 0-0.039 0-29.344 0-53.132 23.788-53.132 53.132s23.788 53.132 53.132 53.132c29.344 0 53.132-23.788 53.132-53.132v0c0-29.33-23.766-53.11-53.091-53.132h-0.002z" />
<glyph unicode="&#xe905;" glyph-name="ContactUs" data-tags="ContactUs" horiz-adv-x="1032" d="M469.352 33.786c-0.178-0.003-0.389-0.005-0.6-0.005-21.192 0-38.372 17.18-38.372 38.372s17.18 38.372 38.372 38.372c21.191 0 38.369-17.177 38.372-38.367v0c0.001-0.089 0.001-0.195 0.001-0.301 0-20.921-16.875-37.901-37.757-38.071h-0.016zM641.894 159.179h-345.084v483.005h43.361c-0.45 6.639-0.75 13.278-0.75 20.030 0 0.006 0 0.014 0 0.022 0 35.339 6.072 69.26 17.231 100.777l-0.652-2.112c-34.328-6.38-63.332-13.745-91.614-22.733l5.343 1.466c-19.692-5.964-36.009-16.392-36.009-36.571v-651.459c0-20.18 22.505-30.607 36.009-36.609 0 0 99.887-32.858 199.586-32.858s199.624 32.858 199.624 32.858c19.655 5.964 35.971 16.429 35.971 36.609v314.402c-18.951-4.242-40.717-6.673-63.051-6.677h-0.002zM508.399 560.452c23.406 27.719 57.389 39.535 84.583 45.011h-0.188c34.096 12.303 22.505 34.696 17.217 43.061-0.975 0.9-1.988 1.838-2.888 2.776-30.457 31.958-61.065 163.015 38.822 163.015s71.080-131.057 41.26-163.015l-2.926-2.776c-5.364-8.29-16.617-30.645 17.517-42.948 27.382-5.401 61.853-17.179 85.858-45.011zM641.857 912.363c-0.223 0.001-0.488 0.001-0.752 0.001-137.925 0-249.736-111.811-249.736-249.736 0-90.035 47.645-168.942 119.098-212.884l1.083-0.62c20.405-43.661-33.121-97.299-39.947-107.951-3.751-6.114 4.314-5.551 4.314-5.551 63.766 3.376 114.553 42.873 147.749 77.344 6.039-0.45 12.040-0.938 18.192-0.938 0.911-0.012 1.986-0.019 3.063-0.019 138.174 0 250.186 112.012 250.186 250.186s-112.012 250.186-250.186 250.186c-1.077 0-2.152-0.007-3.226-0.020l0.163 0.002z" />
<glyph unicode="&#xe906;" glyph-name="openAccount" data-tags="openAccount" horiz-adv-x="1069" d="M482.508 633.154c75.305 0 135.961 60.664 135.961 135.961s-60.664 135.961-135.961 135.961c-75.305 0-135.961-60.664-135.961-135.961s60.664-135.961 135.961-135.961zM411.394 780.623h59.611v61.707h23.012v-61.707h59.611v-23.012h-59.611v-61.707h-23.012v61.707h-59.611v23.012zM1006.506 353.898c-36.599-8.371-85.762 43.926-97.263 57.522-3.142 17.772-7.315 34.513-13.598 51.25 59.611 27.186 87.861 107.72 87.861 107.72-34.513 49.155-177.795 66.935-248.918 73.207-34.513 19.87-73.207 35.556-114.003 46.013-14.641-26.143-37.655-48.112-63.806-61.707 38.698-5.229 57.522-12.544 57.522-12.544 25.1-9.414 25.1-23.012 25.1-23.012 0-15.686-10.457-24.055-23.012-24.055 0 0-57.522 24.055-130.732 21.958s-130.732-21.958-130.732-21.958c-12.544 0-23.012 8.371-23.012 21.958 0 0 3.142 19.87 23.012 26.143 0 0 16.729 7.315 54.384 12.544-24.055 12.544-44.97 32.426-59.611 55.427-92.034-28.241-168.387-82.621-216.494-151.646-13.598 8.371-28.241 20.914-30.327 35.556-3.142 25.1 13.598 17.772 13.598 17.772 12.544-10.457-5.229-23.012-5.229-23.012l5.229-12.544c16.729 0 25.1 21.958 25.1 21.958 4.185 37.655-37.655 31.38-37.655 31.38-10.457-6.272-15.686-20.914-16.729-38.698-11.501-7.315-38.698-4.185-38.698-4.185v0c10.457-13.598 30.327-14.641 39.741-13.598 1.043-27.186 8.371-57.522 14.641-75.305-13.598-33.469-19.87-67.982-19.87-104.59 0-53.336 15.686-103.547 41.84-148.512 15.686-90.991 110.862-228.007 110.862-228.007h116.091v59.611c46.013-14.641 96.219-21.958 147.463-21.958 25.1 0 50.198 2.099 75.305 5.229 14.641-32.426 29.284-42.883 29.284-42.883h146.418v105.633c44.97 27.186 82.621 62.75 110.862 102.491 28.241-9.414 76.348-3.142 99.349 29.284 25.1 37.655 87.861 134.917 46.013 125.503zM836.024 361.221c-14.641 0-27.186 12.544-27.186 27.186s11.501 27.186 27.186 27.186c14.641 0 27.186-12.544 27.186-27.186 0-15.686-12.544-27.186-27.186-27.186z" />
<glyph unicode="&#xe907;" glyph-name="Insurance" data-tags="Insurance" horiz-adv-x="813" d="M413.641 788.185c0-94.872-76.903-171.787-171.787-171.787s-171.787 76.903-171.787 171.787c0 94.872 76.903 171.787 171.787 171.787s171.787-76.903 171.787-171.787zM165.018 577.965h-137.887c-11.313 0-22.595-4.528-27.123-15.825l54.246-617.073h372.964c-115.273 94.921-239.597 266.726-262.197 632.907zM770.778 580.221c-81.381 0-151.44 42.948-192.127 108.49h-153.705c-40.692-65.543-110.761-108.49-192.127-108.49-11.313 0-20.339 0-31.635 2.256 22.595-420.439 187.614-569.613 298.363-646.47 110.761 74.598 273.51 226.036 298.363 646.47-4.528 0-15.825-2.256-27.123-2.256zM662.284 415.221l-183.090-183.090c-4.528-4.528-13.569-4.528-18.082 0l-113.017 113.017c-4.528 4.528-4.528 13.569 0 18.082l27.123 27.123c4.528 4.528 13.569 4.528 18.082 0l76.854-76.854 149.184 149.184c4.528 4.528 13.569 4.528 18.082 0l27.123-27.123c2.256-6.784 2.256-15.825-2.256-20.339z" />
<glyph unicode="&#xe908;" glyph-name="Business" data-tags="Business" horiz-adv-x="1261" d="M1260.97-39.495v366.711l-61.122 18.334v-403.377c-4.072 0-10.192 0-14.249 0v407.455l-67.229 20.37v-423.761c-4.072 0-10.192 0-14.249 0v427.823l-77.408 22.406v-448.2c-4.072 0-10.192 0-14.249 0v448.2l-238.357-57.038-134.456 30.56-193.539-44.823v-75.384l189.473 30.56v52.965l136.492-14.249v-89.637l-136.492 22.406h-2.035l-197.615-32.595 8.142 2.035v-75.384l189.473 20.37v55.015l136.492-6.107v-89.637l-136.492 14.249-191.508-20.37v-75.384l189.473 8.142v46.858l136.492 6.107v-85.561l-134.456 6.107-193.539-8.142v-71.299h-14.249v529.694l-69.264 14.249v-543.964c-4.072 0-10.192 0-14.249 0v560.25l-79.442 16.299v-570.445c-4.072 0-10.192 0-14.249 0v574.509l-91.669 18.334v-596.928c-4.072 0-8.142 0-12.228 0v596.928l-144.65-61.122v-548.020h1259.044v24.441zM635.531 791.715l258.741-89.637-258.741 124.279-20.37-10.192-240.399-114.089v-69.264l260.776 107.97zM637.552 681.702l256.693-77.408-258.741 107.97-260.776-107.97v-69.264l262.811 93.718zM635.531 901.736l258.741-110.005-258.741 138.542-260.776-134.456v-65.191l260.776 124.279zM444.028 457.606l193.539 57.038v48.894l256.693-57.038-256.693 93.718-262.811-93.718 69.264-14.249zM444.028 431.129v-75.384l193.539 44.823v50.93l256.693-40.737-256.693 75.384z" />
<glyph unicode="&#xe909;" glyph-name="Hardhat" data-tags="Hardhat" horiz-adv-x="1229" d="M1030.79 246.877c-29.716 240.398-232.297 426.771-480.785 426.771s-451.069-186.373-480.785-426.771l-78.329-37.806v-81.035h1228.98v64.827l-189.063 54.014zM512.18 554.781c-89.142 0-172.855-27.010-243.093-70.222 70.222 81.035 172.855 129.647 289.011 129.647 205.277 0 375.453-164.771 383.543-367.346-59.421 178.264-229.585 307.931-429.466 307.931z" />
<glyph unicode="&#xe90a;" glyph-name="openSign" data-tags="openSign" horiz-adv-x="1069" d="M426.949 313.972c-6.752 0-11.25-2.241-15.746-4.497l8.993-96.75c2.241 0 6.752 0 11.25 0 31.49 2.241 42.741 24.753 40.499 54.001s-15.746 49.504-44.993 47.251zM210.952 293.723c-24.753-2.241-33.746-42.741-29.248-110.256 6.752-71.988 22.497-105.744 47.251-103.502 27.008 2.241 31.49 49.504 27.008 112.499-4.497 54.001-18.002 103.502-44.993 101.244zM964.699 93.468l-56.242-4.497-58.497 114.74c-13.49 24.753-31.49 65.235-40.499 92.244v0c4.497-31.49 11.25-78.74 15.746-141.751l6.752-69.747-54.001-4.497-27.008 312.75 56.242 4.497 60.754-119.251c11.25-22.497 31.49-62.995 42.741-87.743v0c-4.497 33.746-13.49 87.743-18.002 143.992l-6.752 69.747 54.001 4.497 24.753-315.006zM827.445 475.978l-627.736-54.001 269.989 463.496c2.241 0 4.497 0 4.497 0 2.241 0 2.241 0 4.497 2.241l348.752-411.751zM208.704 345.467c76.498 6.752 105.744-74.244 112.499-146.252 11.25-119.251-27.008-168.739-87.743-175.5-71.988-6.752-107.998 67.505-114.74 153.005-8.993 87.743 20.255 164.242 90.003 168.739zM345.956 349.978c18.002 4.497 40.499 8.993 62.995 11.25 36.001 2.241 67.505 0 87.743-15.746 20.255-13.49 31.49-40.499 33.746-67.505 2.241-33.746-4.497-58.497-20.255-78.74-18.002-22.497-49.504-33.746-74.244-36.001-4.497 0-8.993 0-11.25 0l11.25-116.997-60.754-4.497-29.248 308.253zM561.945 374.717l137.255 11.25 4.497-54.001-76.498-6.752 6.752-71.988 71.988 6.752 4.497-51.745-71.988-6.752 6.752-85.491 81.006 6.752 4.497-54.001-143.992-13.49-24.753 319.487zM1063.7 23.734l-40.499 467.997-164.242-13.49-355.501 418.504c6.752 6.752 8.993 18.002 8.993 27.008-2.241 22.497-20.255 38.242-42.741 36.001s-38.242-20.255-36.001-42.741c0-11.25 6.752-20.255 13.49-24.753l-278.998-474.75-164.242-13.49 40.499-467.997 1019.241 87.743z" />
<glyph unicode="&#xe90b;" glyph-name="Property" data-tags="Property" horiz-adv-x="1101" d="M686.845 136.634l-2.56-2.56c-30.862-30.862-87.459-48.862-149.208-48.862s-118.331 17.999-149.208 48.862l-2.56 2.56c-41.148 38.588-105.465 61.736-180.061 61.736-38.588 0-74.593-5.151-105.465-17.999v-51.435c30.862 12.863 66.871 20.575 105.465 20.575 61.736 0 118.331-17.999 149.208-48.862l2.56-2.56c41.148-38.588 105.465-61.736 180.061-61.736 72.023 0 138.904 23.15 180.061 61.736l2.56 2.56c30.862 30.862 87.459 48.862 149.208 48.862 56.589 0 110.616-17.999 144.056-46.3v59.157c-38.588 23.15-90.033 35.998-144.056 35.998-74.593-2.56-141.491-25.711-180.061-61.736zM686.845 36.297l-2.56-2.56c-30.862-30.862-87.459-48.862-149.208-48.862s-118.331 17.999-149.208 48.862l-2.56 2.56c-41.148 38.588-105.465 61.736-180.061 61.736-38.588 0-74.593-5.151-105.465-17.999v-51.435c30.862 12.863 66.871 20.575 105.465 20.575 61.736 0 118.331-17.999 149.208-48.862l2.56-2.56c41.148-38.588 105.465-61.736 180.061-61.736 72.023 0 138.904 23.15 180.061 61.736l2.56 2.56c30.862 30.862 87.459 48.862 149.208 48.862 56.589 0 110.616-17.999 144.056-46.3v56.589c-38.588 23.15-90.033 35.998-144.056 35.998-74.593 2.56-141.491-20.575-180.061-59.157zM874.625 702.541v236.651h-105.465v-151.769l-216.078 172.343-553.065-439.877 33.436-43.723 517.046 414.16 517.046-414.16 33.436 43.723-226.365 182.646zM385.869 182.926v0l2.56-2.56c30.862-30.862 87.459-48.862 149.208-48.862s118.331 17.999 149.208 48.862l2.56 2.56c41.148 38.588 105.465 61.736 180.061 61.736 28.301 0 56.589-2.56 82.31-10.287v275.244l-393.574 311.263-393.574-311.263v-267.519c15.424 2.56 30.862 2.56 46.3 2.56 66.871 0 133.769-23.15 174.926-61.736zM455.331 517.333h198.078v-198.078h-198.078v198.078z" />
<glyph unicode="&#xe90c;" glyph-name="Stethescope" data-tags="Stethescope" horiz-adv-x="877" d="M802.102 480.68c-40.484 0-72.889-32.385-72.889-72.889 0-30.37 18.215-56.682 44.539-66.818-26.313-131.599-103.246-232.835-228.783-297.628-95.159-50.611-188.29-62.761-206.515-64.786h-2.014c-56.682-6.072-101.232-6.072-129.569-6.072-74.914 2.014-127.551 16.2-155.903 38.464-14.17 12.143-22.272 26.313-22.272 44.539-2.014 16.2 2.014 28.34 12.143 36.442 14.17 14.17 42.52 24.298 83.015 28.34 38.464 4.057 80.988 4.057 119.457 2.014 26.313 0 50.611-2.014 70.86 0 12.143 0 24.298 6.072 32.385 14.17s20.241 22.272 20.241 44.539c0 8.086 0 16.2 0 22.272 0 0 0 0 2.014 2.014l10.129 18.215 8.086 14.17c8.086 4.057 18.215 10.129 28.34 18.215 20.241 16.2 40.484 38.464 62.761 64.786 40.484 52.639 80.988 121.472 111.362 194.369 4.057 8.086 0 16.2-8.086 20.241s-16.2 0-20.241-8.086c-30.37-70.86-68.838-137.684-107.304-188.29-26.313-34.413-52.639-58.71-72.889-70.86-2.014 0-4.057 0-6.072 0h-42.52c-2.014 0-4.057 0-6.072-2.014-22.272 12.143-46.564 36.442-72.889 70.86-38.464 50.611-76.932 117.443-107.304 188.29-4.057 8.086-12.143 12.143-20.241 8.086s-12.143-12.143-8.086-20.241c32.385-72.889 70.86-143.754 111.362-194.369 22.272-28.34 42.52-50.611 62.761-64.786 10.129-8.086 18.215-14.17 28.34-18.215l8.086-14.17 10.129-18.215c0-2.014 2.014-2.014 2.014-4.057 0-4.057 0-10.129 0-20.241s-4.057-18.215-10.129-24.298c-6.072-4.057-12.143-6.072-16.2-6.072-18.215-2.014-42.52 0-68.838 0-38.464 0-83.015 2.014-123.514-2.014-48.596-6.072-80.988-18.215-101.232-38.464-14.17-16.2-22.272-36.442-20.241-60.74 2.014-26.313 12.143-46.564 34.413-64.786 34.413-28.34 93.145-44.539 174.125-46.564 8.086 0 14.17 0 22.272 0 34.413 0 72.889 2.014 111.362 6.072h2.014c10.129 2.014 38.464 4.057 76.932 14.17 50.611 12.143 97.174 30.37 141.725 54.668 58.71 30.37 109.328 70.86 147.797 117.443 48.596 56.682 80.988 125.528 95.159 202.469 38.464 0 70.86 32.385 70.86 72.889-2.014 44.539-34.413 76.932-74.914 76.932zM802.102 365.278c-24.298 0-42.52 18.215-42.52 42.52s18.215 42.52 42.52 42.52c24.298 0 42.52-18.215 42.52-42.52s-18.215-42.52-42.52-42.52zM802.102 444.245c-20.241 0-36.442-16.2-36.442-36.442s16.2-36.442 36.442-36.442c20.241 0 36.442 16.2 36.442 36.442s-16.2 36.442-36.442 36.442zM802.102 379.448c-16.2 0-28.34 12.143-28.34 28.34s12.143 28.34 28.34 28.34 28.34-12.143 28.34-28.34c2.014-16.2-12.143-28.34-28.34-28.34zM480.182 873.46c2.014-2.014 6.072-2.014 10.129 0l16.2 12.143c0 0 2.014 0 2.014 2.014 34.413-8.086 62.761-20.241 85.030-34.413 34.413-22.272 50.611-50.611 46.564-83.015-4.057-56.682-24.298-131.599-60.74-210.557-2.014-2.014 0-6.072 2.014-6.072 0 0 2.014 0 2.014 0 2.014 0 4.057 2.014 4.057 4.057 34.413 80.988 56.682 157.921 60.74 214.615 2.014 36.442-14.17 68.838-52.639 93.145-22.272 16.2-52.639 28.34-89.088 36.442 0 2.014-2.014 2.014-4.057 4.057l-16.2 12.143c-2.014 2.014-6.072 2.014-10.129 0-2.014-2.014-4.057-4.057-4.057-8.086v-20.241c4.057-10.129 6.072-14.17 8.086-16.2zM119.786 551.558c0-2.014 2.014-4.057 4.057-4.057 0 0 2.014 0 2.014 0 2.014 2.014 4.057 4.057 2.014 6.072-34.413 78.956-56.682 153.869-60.74 210.557-2.014 32.385 14.17 60.74 46.564 83.015 22.272 14.17 50.611 26.313 83.015 34.413 0 0 0 0 2.014-2.014l16.2-12.143c2.014-2.014 6.072-2.014 10.129 0 2.014 2.014 4.057 4.057 4.057 8.086v20.241c0 4.057-2.014 6.072-4.057 8.086s-6.072 2.014-10.129 0l-8.086-6.072-6.072 2.014c-2.014-2.014-4.057-2.014-4.057-4.057-34.413-8.086-64.786-22.272-87.059-36.442-36.442-24.298-54.668-56.682-52.639-93.145 6.072-56.682 26.313-133.627 62.761-214.615zM358.704 494.855c91.102 0 163.992 72.889 163.992 163.992s-72.889 163.992-163.992 163.992c-91.102 0-163.992-72.889-163.992-163.992s72.889-163.992 163.992-163.992zM346.554 642.658c-36.442 12.143-60.74 28.34-60.74 60.74 0 30.37 20.241 52.639 56.682 58.71v32.385h32.385v-28.34c22.272 0 36.442-6.072 48.596-10.129l-10.129-38.464c-8.086 4.057-24.298 12.143-48.596 12.143-22.272 0-28.34-10.129-28.34-18.215 0-10.129 12.143-18.215 40.484-28.34 40.484-14.17 54.668-32.385 54.668-62.761s-20.241-54.668-58.71-60.74v-34.413h-32.385v32.385c-22.272 0-44.539 8.086-56.682 14.17l10.129 38.464c14.17-8.086 34.413-14.17 54.668-14.17s32.385 8.086 32.385 20.241c0 10.129-10.129 18.215-34.413 26.313z" />
<glyph unicode="&#xe90d;" glyph-name="Bonds" data-tags="Bonds" horiz-adv-x="685" d="M524.041 959.971v-187.141h160.41zM564.148 272.874c0-73.821-59.855-133.677-133.677-133.677s-133.677 59.855-133.677 133.677c0 73.821 59.855 133.677 133.677 133.677s133.677-59.855 133.677-133.677zM481.266 957.303h-481.243v-1021.289h679.074v786.020h-197.847v235.268zM601.57 272.874c0-45.444-16.042-85.549-45.444-114.967l64.17-106.945-77.529 18.711-18.711-77.529-66.84 109.612c-8.022-2.667-18.711-2.667-26.731-2.667s-18.711 0-26.731 2.667l-66.84-109.612-18.711 77.529-77.529-18.711 64.17 106.945c-26.731 29.417-45.444 69.507-45.444 114.967 0 93.571 77.529 171.1 171.1 171.1s171.1-74.859 171.1-171.1z" />
<glyph unicode="&#xe90e;" glyph-name="Information" data-tags="Information" horiz-adv-x="1037" d="M512.094 895.922c-246.914 0-447.527-200.613-447.527-447.527s200.613-447.527 447.527-447.527c246.914 0 447.527 200.613 447.527 447.527 2.201 246.914-198.413 447.527-447.527 447.527zM476.823 710.738c8.815 8.815 19.842 13.228 33.070 13.228s22.043-4.413 30.858-13.228c8.815-8.815 13.228-19.842 13.228-30.858s-4.413-24.257-13.228-33.070c-8.815-8.815-19.842-13.228-30.858-13.228-13.228 0-24.257 4.413-33.070 13.228s-13.228 19.842-13.228 30.858c2.201 13.228 6.614 24.257 13.228 33.070zM609.094 170.624h-191.799v66.142h59.528v246.914h-59.528v66.142h134.484v-313.042h59.528v-66.142z" />
<glyph unicode="&#xe90f;" glyph-name="Email" data-tags="Email" horiz-adv-x="1063" d="M952.706 140.8h-831.179c-14.939 0-27.049 12.11-27.049 27.049v0 534.335c0 14.939 12.11 27.049 27.049 27.049v0l415.589-348.856 415.589 348.856c14.939 0 27.049-12.11 27.049-27.049v0-534.335c0-14.939-12.11-27.049-27.049-27.049v0zM899.961 729.233h-726.074s356.507-294.41 361.839-294.41 364.235 294.41 364.235 294.41z" />
<glyph unicode="&#xe910;" glyph-name="Instagram" data-tags="Instagram" d="M1024 448c0-282.77-229.23-512-512-512s-512 229.23-512 512c0 282.77 229.23 512 512 512v0c282.77 0 512-229.23 512-512v0zM512 697.28c76.8 0 86.080 0 116.48-1.92 19.265-0.335 37.586-3.944 54.572-10.291l-1.132 0.371c12.582-5.173 23.257-12.665 31.949-22.024l0.051-0.056c9.317-9.382 16.713-20.686 21.538-33.263l0.222-0.657c5.995-16.348 9.604-35.223 9.918-54.899l0.002-0.141c0-32 0-40.32 0-119.040s0-88.32 0-119.36c-0.316-19.817-3.925-38.692-10.301-56.24l0.381 1.2c-5.047-13.234-12.443-24.538-21.765-33.925l0.005 0.005c-8.743-9.415-19.418-16.907-31.407-21.863l-0.593-0.217c-15.854-5.976-34.175-9.585-53.294-9.918l-0.146-0.002c-30.4-1.6-39.68-1.92-116.48-1.92s-86.080 0-116.48 1.92c-19.265 0.335-37.586 3.944-54.572 10.291l1.132-0.371c-12.582 5.173-23.257 12.665-31.949 22.024l-0.051 0.056c-9.317 9.382-16.713 20.686-21.538 33.263l-0.222 0.657c-5.995 16.348-9.604 35.223-9.918 54.899l-0.002 0.141c0 32 0 40.32 0 119.36s0 88 0 119.040c0.316 19.817 3.925 38.692 10.301 56.24l-0.381-1.2c5.047 13.234 12.443 24.538 21.765 33.925l-0.005-0.005c8.743 9.415 19.418 16.907 31.407 21.863l0.593 0.217c15.854 5.976 34.175 9.585 53.294 9.918l0.146 0.002c30.4 0 39.68 1.92 116.48 1.92zM512 750.4c-78.080 0-88 0-118.72-1.92-25.309-0.535-49.319-5.418-71.534-13.929l1.454 0.489c-19.931-8.047-36.887-19.663-50.833-34.191l-0.047-0.049c-13.819-14.475-24.722-31.866-31.68-51.143l-0.32-1.017c-7.874-21.246-12.742-45.787-13.433-71.37l-0.007-0.31c0-32 0-41.6 0-121.6s0-90.24 0-121.92c0.698-25.893 5.566-50.434 13.953-73.276l-0.513 1.596c7.279-20.294 18.181-37.686 32.054-52.217l-0.054 0.057c13.993-14.577 30.949-26.193 49.914-33.893l0.966-0.347c20.761-8.022 44.772-12.905 69.853-13.436l0.227-0.004c32-1.6 40.64-1.92 118.72-1.92s88 0 118.72 1.92c25.309 0.535 49.319 5.418 71.534 13.929l-1.454-0.489c19.931 8.047 36.887 19.663 50.833 34.191l0.047 0.049c13.819 14.475 24.722 31.866 31.68 51.143l0.32 1.017c7.874 21.246 12.742 45.787 13.433 71.37l0.007 0.31c0 32 0 41.6 0 121.92s0 89.92 0 121.6c-0.698 25.893-5.566 50.434-13.953 73.276l0.513-1.596c-7.279 20.294-18.181 37.686-32.054 52.217l0.054-0.057c-13.938 14.945-30.898 26.876-49.928 34.846l-0.952 0.354c-20.761 8.022-44.772 12.905-69.853 13.436l-0.227 0.004c-32 1.6-40.64 1.92-118.72 1.92zM512 606.72c-1.143 0.031-2.49 0.049-3.84 0.049-83.771 0-151.68-67.909-151.68-151.68s67.909-151.68 151.68-151.68c83.771 0 151.68 67.909 151.68 151.68 0 0.095 0 0.191 0 0.286v-0.015c0.018 0.861 0.028 1.875 0.028 2.892 0 82.045-65.976 148.68-147.767 149.747l-0.101 0.001zM512 356.8c-0.762-0.021-1.66-0.033-2.56-0.033-54.433 0-98.56 44.127-98.56 98.56s44.127 98.56 98.56 98.56c54.421 0 98.541-44.108 98.56-98.525v-0.002c0.022-0.762 0.034-1.66 0.034-2.56 0-53.019-42.981-96-96-96-0.012 0-0.024 0-0.036 0h0.002zM665.6 648.32c-0.286 0.008-0.622 0.013-0.96 0.013-19.617 0-35.52-15.903-35.52-35.52s15.903-35.52 35.52-35.52c19.613 0 35.513 15.895 35.52 35.506v0.001c0.001 0.097 0.002 0.211 0.002 0.326 0 19.216-15.398 34.836-34.528 35.194h-0.033z" />
<glyph unicode="&#xe911;" glyph-name="car-icon" data-tags="car icon" horiz-adv-x="1383" d="M224.066 682.484c-2.172-3.73-4.514-8.341-6.618-13.082l-0.384-0.966c-3.654-8.713-7.717-16.171-12.429-23.155l0.299 0.468c-10.24 0.178-43.899 0.906-74.136 5.946-36.227 5.753-36.733 26.639-31.946 54.364s52.952 21.6 75.681 24.483 26.759-11.521 32.972-26.105c4.047-8.67 9.636-15.984 16.477-21.887l0.083-0.070zM277.211 74.88c0.048-1.745 0.076-3.8 0.076-5.858 0-11.719-0.898-23.228-2.628-34.46l0.16 1.252c-5.47-39.246-41.519-33.478-43.111-35.098s-32.467 0-85.938 0c-41.179 0-49.37 86.771-50.915 126.195 17.425-22.507 44.596-39.066 79.1-46.99 18.629-4.133 38.948-6.11 63.922-6.11 12.457 0 25.495 0.356 39.335 1.070zM1252.532 651.697c-30.236-5.039-63.922-5.768-74.15-5.946-4.397 6.51-8.46 13.967-11.797 21.807l-0.332 0.878c-2.456 5.67-4.798 10.282-7.37 14.746l0.37-0.697c6.975 5.935 12.578 13.261 16.414 21.569l0.16 0.388c6.152 14.583 10.24 28.986 32.972 26.105s70.894 3.062 75.681-24.483 4.266-48.611-31.946-54.364zM1288.401 126.909c-1.487-39.246-9.558-126.195-50.9-126.195-53.516 0-84.408-1.62-85.937 0s-37.417-4.148-43.111 35.098c-1.574 9.925-2.475 21.373-2.475 33.025 0 2.124 0.030 4.243 0.090 6.352l-0.006-0.311c13.838-0.713 26.759-1.070 39.29-1.070 24.944 0 45.282 1.978 63.922 6.11 34.547 7.923 61.886 24.483 79.13 46.99zM1292.504 449.168c-7.863 98.469-60.815 122.239-86.786 141.314s-47.317 50.96-55.18 71.056-87.99 148.524-124.024 190.117-105.931 39.246-105.931 39.246l-228.931 5.039-228.931-5.039s-69.868 2.333-105.916-39.246-115.981-169.722-124.010-190.117-29.224-52.209-55.18-71.117-78.908-42.783-86.801-141.252-3.405-224.47 0-266.096 35.023-73.645 86.801-85.523 108.133-2.333 193.891 0 320.161 3.552 320.161 3.552 234.564-1.249 320.146-3.597 141.966-11.892 193.906 0 83.366 43.928 86.786 85.523 7.863 167.475 0 266.142zM315.474 178.12h-0.163c-45.132 0-134.802 14.865-161.263 29.448-14.227 7.846-13.766 20.143-12.219 26.759 2.526 10.822 10.614 19.326 18.405 19.326h0.476c15.014-0.622 53.77-14.717 115.165-41.892 4.458-1.948 7.566-3.345 9.036-3.94 12.886-5.46 23.979-12.503 33.703-21.065l-0.135 0.118c3.345-2.988 1.367-8.756-3.002-8.756zM349.933 405.417c-5.813-8.83-19.637-10.407-28.691-11.892-8.131-1.165-17.523-1.826-27.068-1.826-3.222 0-6.426 0.076-9.61 0.226l0.451-0.017c-22.513 0.403-44.211 2.754-65.267 6.894l2.341-0.384c-64.592 11.892-69.542 56.697-73.808 85.865s26.238 59.939 55.969 47.928c22.388-9.008 43.111-23.592 63.209-36.91 12.815-8.637 25.97-16.918 38.65-26.105 9.753-7.076 18.337-14.284 26.386-22.045l-0.075 0.071c9.708-9.395 27.635-26.329 17.511-41.802zM966.158 200.271c-17.481-30.787-57.278-45.207-245.342-44.24h-58.302c-188.124-0.966-227.846 13.453-245.371 44.3s16.352 30.832 16.352 30.832 220.843 0.966 229.019 0h58.302c8.176 0.966 229.019 0 229.019 0s33.894 0 16.367-30.832zM447.349 475.747c54.498 0.906 244.302 0 244.302 0s189.803 0.906 244.302 0-26.476-107.063-71.056-117.142-173.228-6.659-173.228-6.659-128.812-3.42-173.228 6.659-125.571 116.486-71.072 117.199zM691.664 695.983c-144.702 0-410.291-14.94-410.291-14.94s57.070 114.674 72.842 139.738 28.244 31.5 61.499 39.78 276.084 11.892 276.084 11.892 242.756-3.597 276.069-11.892 45.622-14.762 61.499-39.78 72.96-139.738 72.96-139.738-263.748 14.94-410.663 14.94zM1033.575 405.417c-10.257 15.476 7.686 32.407 17.425 41.757 7.972 7.692 16.558 14.901 25.62 21.492l0.692 0.48c12.634 9.187 25.793 17.467 38.65 26.105 20.158 13.376 40.836 27.903 63.209 36.91 29.731 12.056 60.31-18.731 56.044-47.898s-9.335-73.956-73.912-85.85c-18.76-3.755-40.502-6.096-62.722-6.474l-0.324-0.005c-2.758-0.132-5.989-0.212-9.239-0.212-9.526 0-18.902 0.661-28.079 1.938l1.059-0.118c-9.008 1.427-22.849 3.047-28.482 11.878zM1229.279 207.572c-26.461-14.613-116.131-29.448-161.263-29.448h-0.075c-4.458 0-6.348 5.768-2.974 8.742 9.582 8.443 20.669 15.486 32.752 20.645l0.8 0.303c1.487 0.594 4.639 1.993 9.036 3.94 61.41 27.175 100.148 41.267 115.18 41.892h0.461c7.79 0 15.877-8.489 18.405-19.326 1.442-6.6 1.918-18.895-12.324-26.744z" />
<glyph unicode="&#xe912;" glyph-name="form" data-tags="form" horiz-adv-x="1005" d="M549.128 527.036l112.314-112.314 276.638 276.638-112.314 112.314c-85.276-87.352-220.475-220.475-276.638-276.638zM628.164 527.036l-16.645 18.721 203.83 203.83 16.645-16.645-203.83-205.919zM634.404 385.597v0l-112.314 112.314c0 0 0 0 0 0v-112.314h112.314zM987.99 778.713c-18.721 18.721-74.884 74.884-74.884 74.884s-18.721 18.721-37.442 0c-2.076-2.076-10.405-10.405-22.885-22.885l112.314-112.314 22.885 22.885c0 0 18.721 18.721 0 37.442zM694.719 221.284h-185.122v-224.64h-449.267v898.533h634.388v-183.033l64.479 64.479v178.881h-759.182v-1023.34h565.745l193.438 216.311v322.396l-64.479-64.479v-185.122zM453.447 385.597v76.96h-170.553v-76.96h170.553zM230.896 385.597v76.96h-106.073v-76.96h106.073z" />
<glyph unicode="&#xe959;" glyph-name="mobile" data-tags="mobile, cell-phone, handheld" d="M736 960h-448c-52.8 0-96-43.2-96-96v-832c0-52.8 43.2-96 96-96h448c52.8 0 96 43.2 96 96v832c0 52.8-43.2 96-96 96zM384 912h256v-32h-256v32zM512 0c-35.346 0-64 28.654-64 64s28.654 64 64 64 64-28.654 64-64-28.654-64-64-64zM768 192h-512v640h512v-640z" />
<glyph unicode="&#xe967;" glyph-name="back" data-tags="undo, left, arrow-left" d="M761.862-64c113.726 206.032 132.888 520.306-313.862 509.824v-253.824l-384 384 384 384v-248.372c534.962 13.942 594.57-472.214 313.862-775.628z" />
<glyph unicode="&#xe968;" glyph-name="forward" data-tags="redo, right, arrow-right" d="M576 711.628v248.372l384-384-384-384v253.824c-446.75 10.482-427.588-303.792-313.86-509.824-280.712 303.414-221.1 789.57 313.86 775.628z" />
<glyph unicode="&#xe969;" glyph-name="forward2" data-tags="forward, right, arrow-right" d="M262.14 960c-113.728-206.032-132.89-520.304 313.86-509.824v253.824l384-384-384-384v248.372c-534.96-13.942-594.572 472.214-313.86 775.628z" />
<glyph unicode="&#xe96a;" glyph-name="back2" data-tags="reply, left, arrow-left" d="M448 184.372v-248.372l-384 384 384 384v-253.824c446.75-10.48 427.588 303.792 313.862 509.824 280.71-303.414 221.1-789.57-313.862-775.628z" />
<glyph unicode="&#xe96d;" glyph-name="bubbles" data-tags="bubbles, comments, chat, talk" horiz-adv-x="1152" d="M1088 58.834c0-45.5 26.028-84.908 64-104.184v-15.938c-10.626-1.454-21.472-2.224-32.5-2.224-68.008 0-129.348 28.528-172.722 74.264-26.222-6.982-54.002-10.752-82.778-10.752-159.058 0-288 114.616-288 256s128.942 256 288 256c159.058 0 288-114.616 288-256 0-55.348-19.764-106.592-53.356-148.466-6.824-14.824-10.644-31.312-10.644-48.7zM512 960c278.458 0 504.992-180.614 511.836-405.52-49.182 21.92-103.586 33.52-159.836 33.52-95.56 0-185.816-33.446-254.138-94.178-70.846-62.972-109.862-147.434-109.862-237.822 0-44.672 9.544-87.888 27.736-127.788-5.228-0.126-10.468-0.212-15.736-0.212-27.156 0-53.81 1.734-79.824 5.044-109.978-109.978-241.25-129.7-368.176-132.596v26.916c68.536 33.578 128 94.74 128 164.636 0 9.754-0.758 19.33-2.164 28.696-115.796 76.264-189.836 192.754-189.836 323.304 0 229.75 229.23 416 512 416z" />
<glyph unicode="&#xe9bd;" glyph-name="menu" data-tags="menu" horiz-adv-x="973" d="M0.007 831.341h975.406v-142.346h-975.406v142.346zM0.007 519.144h975.406v-142.346h-975.406v142.346zM0.007 206.947h975.406v-142.346h-975.406v142.346z" />
<glyph unicode="&#xea07;" glyph-name="warning" data-tags="warning" d="M512 867.226l429.102-855.226h-858.206l429.104 855.226zM512 960c-22.070 0-44.14-14.882-60.884-44.648l-437.074-871.112c-33.486-59.532-5-108.24 63.304-108.24h869.308c68.3 0 96.792 48.708 63.3 108.24h0.002l-437.074 871.112c-16.742 29.766-38.812 44.648-60.882 44.648v0zM576 128c0-35.346-28.654-64-64-64s-64 28.654-64 64c0 35.346 28.654 64 64 64s64-28.654 64-64zM512 256c-35.346 0-64 28.654-64 64v192c0 35.346 28.654 64 64 64s64-28.654 64-64v-192c0-35.346-28.654-64-64-64z" />
<glyph unicode="&#xea08;" glyph-name="notification" data-tags="notification" d="M512 864c-111.118 0-215.584-43.272-294.156-121.844s-121.844-183.038-121.844-294.156c0-111.118 43.272-215.584 121.844-294.156s183.038-121.844 294.156-121.844c111.118 0 215.584 43.272 294.156 121.844s121.844 183.038 121.844 294.156c0 111.118-43.272 215.584-121.844 294.156s-183.038 121.844-294.156 121.844zM512 960v0c282.77 0 512-229.23 512-512s-229.23-512-512-512c-282.77 0-512 229.23-512 512s229.23 512 512 512zM448 256h128v-128h-128zM448 768h128v-384h-128z" />
<glyph unicode="&#xea09;" glyph-name="question" data-tags="question" d="M448 256h128v-128h-128zM704 704c35.346 0 64-28.654 64-64v-192l-192-128h-128v64l192 128v64h-320v128h384zM512 864c-111.118 0-215.584-43.272-294.156-121.844s-121.844-183.038-121.844-294.156c0-111.118 43.272-215.584 121.844-294.156s183.038-121.844 294.156-121.844c111.118 0 215.584 43.272 294.156 121.844s121.844 183.038 121.844 294.156c0 111.118-43.272 215.584-121.844 294.156s-183.038 121.844-294.156 121.844zM512 960v0c282.77 0 512-229.23 512-512s-229.23-512-512-512c-282.77 0-512 229.23-512 512s229.23 512 512 512z" />
<glyph unicode="&#xea0c;" glyph-name="info" data-tags="info" d="M448 656c0 26.4 21.6 48 48 48h32c26.4 0 48-21.6 48-48v-32c0-26.4-21.6-48-48-48h-32c-26.4 0-48 21.6-48 48v32zM640 192h-256v64h64v192h-64v64h192v-256h64zM512 960c-282.77 0-512-229.23-512-512s229.23-512 512-512 512 229.23 512 512-229.23 512-512 512zM512 32c-229.75 0-416 186.25-416 416s186.25 416 416 416 416-186.25 416-416-186.25-416-416-416z" />
<glyph unicode="&#xea0d;" glyph-name="cancel-circle" data-tags="cancel-circle" d="M512 960c-282.77 0-512-229.23-512-512s229.23-512 512-512 512 229.23 512 512-229.23 512-512 512zM512 32c-229.75 0-416 186.25-416 416s186.25 416 416 416 416-186.25 416-416-186.25-416-416-416zM672 704l-160-160-160 160-96-96 160-160-160-160 96-96 160 160 160-160 96 96-160 160 160 160z" />
<glyph unicode="&#xea0e;" glyph-name="blocked" data-tags="blocked" d="M874.040 810.040c-96.706 96.702-225.28 149.96-362.040 149.96s-265.334-53.258-362.040-149.96c-96.702-96.706-149.96-225.28-149.96-362.040s53.258-265.334 149.96-362.040c96.706-96.702 225.28-149.96 362.040-149.96s265.334 53.258 362.040 149.96c96.702 96.706 149.96 225.28 149.96 362.040s-53.258 265.334-149.96 362.040zM896 448c0-82.814-26.354-159.588-71.112-222.38l-535.266 535.268c62.792 44.758 139.564 71.112 222.378 71.112 211.738 0 384-172.262 384-384zM128 448c0 82.814 26.354 159.586 71.112 222.378l535.27-535.268c-62.794-44.756-139.568-71.11-222.382-71.11-211.738 0-384 172.262-384 384z" />
<glyph unicode="&#xead1;" glyph-name="pinterest" data-tags="pinterest, brand, social" d="M512 891.6c-245 0-443.6-198.6-443.6-443.6 0-188 117-348.4 282-413-3.8 35-7.4 89 1.6 127.2 8 34.6 52 220.4 52 220.4s-13.2 26.6-13.2 65.8c0 61.6 35.8 107.8 80.2 107.8 37.8 0 56.2-28.4 56.2-62.4 0-38-24.2-95-36.8-147.6-10.6-44.2 22-80.2 65.6-80.2 78.8 0 139.4 83.2 139.4 203.2 0 106.2-76.4 180.4-185.2 180.4-126.2 0-200.2-94.6-200.2-192.6 0-38.2 14.6-79 33-101.2 3.6-4.4 4.2-8.2 3-12.8-3.4-14-10.8-44.2-12.4-50.4-2-8.2-6.4-9.8-14.8-6-55.4 25.8-90 106.8-90 171.8 0 140 101.6 268.4 293 268.4 153.8 0 273.4-109.6 273.4-256.2 0-152.8-96.4-276-230.2-276-45 0-87.2 23.4-101.6 51 0 0-22.2-84.6-27.6-105.4-10-38.6-37-86.8-55.2-116.2 41.6-12.8 85.6-19.8 131.4-19.8 245 0 443.6 198.6 443.6 443.6 0 245.2-198.6 443.8-443.6 443.8z" />
<glyph unicode="&#xeada;" glyph-name="file-pdf" data-tags="file-pdf" d="M842.012 370.52c-13.648 13.446-43.914 20.566-89.972 21.172-31.178 0.344-68.702-2.402-108.17-7.928-17.674 10.198-35.892 21.294-50.188 34.658-38.462 35.916-70.568 85.772-90.576 140.594 1.304 5.12 2.414 9.62 3.448 14.212 0 0 21.666 123.060 15.932 164.666-0.792 5.706-1.276 7.362-2.808 11.796l-1.882 4.834c-5.894 13.592-17.448 27.994-35.564 27.208l-10.916 0.344c-20.202 0-36.664-10.332-40.986-25.774-13.138-48.434 0.418-120.892 24.98-214.738l-6.288-15.286c-17.588-42.876-39.63-86.060-59.078-124.158l-2.528-4.954c-20.46-40.040-39.026-74.028-55.856-102.822l-17.376-9.188c-1.264-0.668-31.044-16.418-38.028-20.644-59.256-35.38-98.524-75.542-105.038-107.416-2.072-10.17-0.53-23.186 10.014-29.212l16.806-8.458c7.292-3.652 14.978-5.502 22.854-5.502 42.206 0 91.202 52.572 158.698 170.366 77.93 25.37 166.652 46.458 244.412 58.090 59.258-33.368 132.142-56.544 178.142-56.544 8.168 0 15.212 0.78 20.932 2.294 8.822 2.336 16.258 7.368 20.792 14.194 8.926 13.432 10.734 31.932 8.312 50.876-0.72 5.622-5.21 12.574-10.068 17.32zM211.646 145.952c7.698 21.042 38.16 62.644 83.206 99.556 2.832 2.296 9.808 8.832 16.194 14.902-47.104-75.124-78.648-105.066-99.4-114.458zM478.434 760.314c13.566 0 21.284-34.194 21.924-66.254s-6.858-54.56-16.158-71.208c-7.702 24.648-11.426 63.5-11.426 88.904 0 0-0.566 48.558 5.66 48.558v0zM398.852 322.506c9.45 16.916 19.282 34.756 29.33 53.678 24.492 46.316 39.958 82.556 51.478 112.346 22.91-41.684 51.444-77.12 84.984-105.512 4.186-3.542 8.62-7.102 13.276-10.65-68.21-13.496-127.164-29.91-179.068-49.862v0zM828.902 326.348c-4.152-2.598-16.052-4.1-23.708-4.1-24.708 0-55.272 11.294-98.126 29.666 16.468 1.218 31.562 1.838 45.102 1.838 24.782 0 32.12 0.108 56.35-6.072 24.228-6.18 24.538-18.734 20.382-21.332v0zM917.806 730.924c-22.21 30.292-53.174 65.7-87.178 99.704s-69.412 64.964-99.704 87.178c-51.574 37.82-76.592 42.194-90.924 42.194h-496c-44.112 0-80-35.888-80-80v-864c0-44.112 35.886-80 80-80h736c44.112 0 80 35.888 80 80v624c0 14.332-4.372 39.35-42.194 90.924v0zM785.374 785.374c30.7-30.7 54.8-58.398 72.58-81.374h-153.954v153.946c22.982-17.78 50.678-41.878 81.374-72.572v0zM896 16c0-8.672-7.328-16-16-16h-736c-8.672 0-16 7.328-16 16v864c0 8.672 7.328 16 16 16 0 0 495.956 0.002 496 0v-224c0-17.672 14.324-32 32-32h224v-624z" />
<glyph unicode="&#xeadc;" glyph-name="file-word" data-tags="file-word" d="M639.778 484.108h44.21l-51.012-226.178-66.324 318.010h-106.55l-77.114-318.010-57.816 318.010h-111.394l113.092-511.88h108.838l76.294 302.708 68.256-302.708h100.336l129.628 511.88h-170.446v-91.832zM917.806 730.924c-22.21 30.292-53.174 65.7-87.178 99.704s-69.412 64.964-99.704 87.178c-51.574 37.82-76.592 42.194-90.924 42.194h-496c-44.112 0-80-35.888-80-80v-864c0-44.112 35.886-80 80-80h736c44.112 0 80 35.888 80 80v624c0 14.332-4.372 39.35-42.194 90.924v0zM785.374 785.374c30.7-30.7 54.8-58.398 72.58-81.374h-153.954v153.946c22.982-17.78 50.678-41.878 81.374-72.572v0zM896 16c0-8.672-7.328-16-16-16h-736c-8.672 0-16 7.328-16 16v864c0 8.672 7.328 16 16 16 0 0 495.956 0.002 496 0v-224c0-17.672 14.324-32 32-32h224v-624z" />
<glyph unicode="&#xeadd;" glyph-name="file-excel" data-tags="file-excel" d="M743.028 576h-135.292l-95.732-141.032-95.742 141.032h-135.29l162.162-242.464-182.972-269.536h251.838v91.576h-50.156l50.156 74.994 111.396-166.57h140.444l-182.976 269.536 162.164 242.464zM917.806 730.924c-22.21 30.292-53.174 65.7-87.178 99.704s-69.412 64.964-99.704 87.178c-51.574 37.82-76.592 42.194-90.924 42.194h-496c-44.112 0-80-35.888-80-80v-864c0-44.112 35.886-80 80-80h736c44.112 0 80 35.888 80 80v624c0 14.332-4.372 39.35-42.194 90.924v0zM785.374 785.374c30.7-30.7 54.8-58.398 72.58-81.374h-153.954v153.946c22.982-17.78 50.678-41.878 81.374-72.572v0zM896 16c0-8.672-7.328-16-16-16h-736c-8.672 0-16 7.328-16 16v864c0 8.672 7.328 16 16 16 0 0 495.956 0.002 496 0v-224c0-17.672 14.324-32 32-32h224v-624z" />
<glyph unicode="&#xeae5;" glyph-name="chrome" data-tags="chrome" d="M258.278 513.458l-146.532 253.802c93.818 117.464 238.234 192.74 400.254 192.74 187.432 0 351.31-100.736 440.532-251h-417.77c-7.504 0.65-15.092 1-22.762 1-121.874 0-224.578-83.644-253.722-196.542zM695.306 635h293.46c22.74-57.93 35.234-121.004 35.234-187 0-280.826-226.1-508.804-506.186-511.926l209.394 362.678c29.48 42.378 46.792 93.826 46.792 149.248 0 73.17-30.164 139.42-78.694 187zM326 448c0 102.56 83.44 186 186 186s186-83.44 186-186c0-102.56-83.44-186-186-186s-186 83.44-186 186zM582.182 195.558l-146.578-253.878c-246.532 36.884-435.604 249.516-435.604 506.32 0 91.218 23.884 176.846 65.696 251.024l209.030-362.054c41.868-89.112 132.476-150.97 237.274-150.97 24.3 0 47.836 3.34 70.182 9.558z" />
<glyph unicode="&#xeae6;" glyph-name="firefox" data-tags="firefox" d="M1022.526 625.86l-11.86-76.080c0 0-16.954 140.856-37.732 193.514-31.846 80.688-46.014 80.040-46.108 79.922 21.33-54.204 17.462-83.324 17.462-83.324s-37.792 102.998-137.712 135.768c-110.686 36.282-170.57 26.364-177.488 24.486-1.050 0.008-2.064 0.010-3.030 0.010 0.818-0.062 1.612-0.146 2.426-0.212-0.034-0.020-0.090-0.042-0.082-0.052 0.45-0.548 122.306-21.302 143.916-50.996 0 0-51.76 0-103.272-14.842-2.328-0.666 189.524-23.964 228.746-215.674 0 0-21.030 43.876-47.040 51.328 17.106-52.036 12.714-150.776-3.576-199.85-2.096-6.312-4.24 27.282-36.328 41.75 10.28-73.646-0.616-190.456-51.708-222.632-3.982-2.504 32.030 115.31 7.242 69.762-142.708-218.802-311.404-100.972-387.248-49.11 38.866-8.462 112.654 1.318 145.314 25.612 0.042 0.030 0.078 0.056 0.118 0.086 35.468 24.252 56.472 41.964 75.334 37.772 18.874-4.214 31.438 14.726 16.78 31.53-14.676 16.838-50.314 39.978-98.524 27.366-34-8.904-76.134-46.522-140.448-8.432-49.364 29.25-54.012 53.546-54.45 70.376 1.218 5.966 2.754 11.536 4.576 16.624 5.682 15.87 22.912 20.658 32.494 24.438 16.256-2.792 30.262-7.862 44.968-15.406 0.19 4.894 0.252 11.39-0.018 18.76 1.41 2.802 0.538 11.252-1.722 21.58-1.302 10.308-3.42 20.974-6.752 30.692 0.012 0.002 0.020 0.010 0.030 0.014 0.056 0.018 0.108 0.040 0.156 0.070 0.078 0.044 0.146 0.112 0.208 0.19 0.012 0.020 0.030 0.034 0.044 0.052 0.082 0.124 0.154 0.272 0.198 0.466 1.020 4.618 12.022 13.524 25.718 23.1 12.272 8.58 26.702 17.696 38.068 24.752 10.060 6.248 17.72 10.882 19.346 12.098 0.618 0.466 1.358 1.012 2.164 1.636 0.15 0.116 0.3 0.232 0.454 0.354 0.094 0.074 0.19 0.148 0.286 0.226 5.41 4.308 13.484 12.448 15.178 29.578 0.004 0.042 0.010 0.080 0.012 0.122 0.050 0.504 0.092 1.014 0.13 1.534 0.028 0.362 0.050 0.726 0.072 1.096 0.014 0.284 0.032 0.566 0.044 0.856 0.030 0.674 0.050 1.364 0.060 2.064 0 0.040 0.002 0.076 0.004 0.116 0.022 1.658-0.006 3.386-0.104 5.202-0.054 1.014-0.126 1.93-0.298 2.762-0.008 0.044-0.018 0.092-0.028 0.136-0.018 0.082-0.036 0.164-0.058 0.244-0.036 0.146-0.076 0.292-0.122 0.43-0.006 0.018-0.010 0.032-0.016 0.046-0.052 0.16-0.112 0.314-0.174 0.464-0.004 0.006-0.004 0.010-0.006 0.016-1.754 4.108-8.32 5.658-35.442 6.118-0.026 0.002-0.050 0.002-0.076 0.002v0c-11.066 0.188-25.538 0.194-44.502 0.118-33.25-0.134-51.628 32.504-57.494 45.132 8.040 44.46 31.276 76.142 69.45 97.626 0.722 0.406 0.58 0.742-0.274 0.978 7.464 4.514-90.246 0.124-135.186-57.036-39.888 9.914-74.654 9.246-104.616 2.214-5.754 0.162-12.924 0.88-21.434 2.652-19.924 18.056-48.448 51.402-49.976 91.208 0 0-0.092-0.072-0.252-0.204-0.020 0.382-0.056 0.76-0.072 1.142 0 0-60.716-46.664-51.628-173.882-0.022-2.036-0.064-3.986-0.12-5.874-16.432-22.288-24.586-41.020-25.192-45.156-14.56-29.644-29.334-74.254-41.356-141.98 0 0 8.408 26.666 25.284 56.866-12.412-38.022-22.164-97.156-16.436-185.856 0 0 1.514 19.666 6.874 47.994 4.186-55.010 22.518-122.924 68.858-202.788 88.948-153.32 225.67-230.74 376.792-242.616 26.836-2.212 54.050-2.264 81.424-0.186 2.516 0.178 5.032 0.364 7.55 0.574 30.964 2.174 62.134 6.852 93.238 14.366 425.172 102.798 378.942 616.198 378.942 616.198z" />
<glyph unicode="&#xeae7;" glyph-name="IE" data-tags="IE" d="M734.202 331.17h236.050c1.82 16.37 2.548 33.098 2.548 50.196 0 80.224-21.534 155.468-59.124 220.266 38.88 103.308 37.492 190.988-14.556 243.39-49.496 49.28-182.29 41.28-332.412-25.198-11.104 0.84-22.318 1.272-33.638 1.272-206.048 0-378.926-141.794-426.708-332.85 64.638 82.754 132.638 142.754 223.478 186.448-8.26-7.74-56.454-55.652-64.56-63.764-239.548-239.478-315.090-552.306-233.806-633.604 61.786-61.774 173.758-51.342 302.376 11.648 59.806-30.458 127.5-47.63 199.218-47.63 193.134 0 356.804 124.316 416.090 297.448h-237.868c-32.734-60.382-96.748-101.48-170.218-101.48-73.468 0-137.484 41.098-170.216 101.48-14.55 27.274-22.914 58.554-22.914 91.656v0.722h386.26zM348.302 447.196c5.456 97.11 86.2 174.584 184.766 174.584s179.312-77.472 184.766-174.584h-369.532zM896.966 796.192c33.526-33.88 32.688-96.214 4.012-174.022-49.136 74.908-120.518 133.936-204.792 167.64 90.106 38.638 163.406 43.756 200.78 6.382zM93.482-7.256c-42.782 42.796-29.884 132.618 25.23 240.832 34.308-96.27 101.156-177.090 187.336-229.154-95.43-43.318-173.536-50.674-212.566-11.678z" />
<glyph unicode="&#xeae8;" glyph-name="opera" data-tags="opera" d="M510.046 960c-279.724 0-480.748-202.896-480.748-507.224 0-270.818 195.502-516.776 480.784-516.776 288.078 0 484.62 245.886 484.62 516.776 0 306.76-207.446 507.224-484.656 507.224zM688.358 461.458c-0.068-169.352-9.098-410.482-178.276-410.482v-0.034c-166.784 0-173.432 241.266-173.432 410.308 0 198.38 18.56 388.568 173.432 388.568 154.874 0 178.276-192.584 178.276-388.36z" />
<glyph unicode="&#xeae9;" glyph-name="safari" data-tags="safari" d="M512 896c-24.064 0-47.708-1.792-70.824-5.212-0.3 0.782-0.624 1.548-0.982 2.296 12.826 10.002 19.55 23.83 16.634 37.552-3.734 17.564-22.394 29.364-46.434 29.364-5.18 0-10.458-0.562-15.68-1.672-30.168-6.414-50.146-28.622-45.482-50.562 2.834-13.338 14.292-23.338 30.164-27.384-0.032-0.972-0.016-1.95 0.042-2.934-200.622-57.53-347.438-242.338-347.438-461.448 0-265.098 214.904-480 480-480 265.098 0 480 214.902 480 480 0 265.096-214.902 480-480 480zM364.882 911.092c-2.706 12.726 12.48 27.19 33.158 31.584 4.132 0.878 8.29 1.324 12.354 1.324 16.036 0 28.694-6.864 30.784-16.69 1.596-7.51-3.070-15.61-11.386-21.904-7.034 4.966-16.016 7.126-25.1 5.196-9.044-1.922-16.348-7.508-20.758-14.856-10.184 2.45-17.508 8.084-19.052 15.346zM769.386 158.614c-43.968-43.968-97.21-75.278-155.31-92.154l-42.396 68.768-10.746-79.958c-16.090-2.152-32.426-3.27-48.934-3.27-97.228 0-188.636 37.864-257.386 106.614-43.968 43.966-75.278 97.21-92.154 155.308l68.768 42.398-79.96 10.746c-2.15 16.090-3.268 32.426-3.268 48.934 0 97.228 37.862 188.636 106.614 257.386 43.968 43.968 97.212 75.278 155.31 92.156l42.396-68.77 10.748 79.96c16.088 2.15 32.424 3.268 48.932 3.268 97.228 0 188.636-37.862 257.386-106.614 43.968-43.968 75.278-97.212 92.154-155.31l-68.77-42.398 79.96-10.746c2.152-16.088 3.27-32.424 3.27-48.932 0-97.228-37.864-188.636-106.614-257.386zM760.902 664.902l-196.978-149.704c-14.644 7.658-30.876 12.062-47.416 12.726l-51.080 107.18-3.068-118.664c-13.284-6.536-25.104-15.664-34.876-26.95l-63.088 22.364 46.092-48.538c-6.334-13.518-9.866-28.030-10.434-42.824l-107.158-51.066 118.738-3.068c0.38-0.768 0.774-1.526 1.17-2.282l-149.704-196.98 196.978 149.704c14.644-7.656 30.874-12.060 47.416-12.724l51.080-107.182 3.066 118.664c13.286 6.538 25.106 15.664 34.878 26.952l63.090-22.368-46.094 48.54c6.336 13.52 9.868 28.030 10.436 42.824l107.156 51.066-118.736 3.070c-0.378 0.766-0.774 1.524-1.17 2.28l149.702 196.98zM512.102 515.466v0zM492.042 509.902c6.726 1.43 13.444 2.118 20.056 2.118 4.144 0 8.25-0.27 12.294-0.796l0.092-0.032-0.010 0.022c8.732-1.144 17.176-3.5 25.132-6.896l-71.546-54.376-54.38-71.552c-2.376 5.594-4.27 11.484-5.58 17.652-11.026 51.86 22.080 102.836 73.942 113.86zM562.12 334.116v0 0c-9.056-5.544-19.182-9.684-30.16-12.018-6.726-1.43-13.444-2.118-20.054-2.118-4.15 0-8.258 0.272-12.308 0.798l-0.068 0.010c-8.734 1.142-17.174 3.5-25.132 6.894l71.544 54.376 54.38 71.554c2.376-5.594 4.27-11.486 5.58-17.654 8.69-40.882-10.056-81.2-43.782-101.842z" />
<glyph unicode="&#xf081;" glyph-name="cancel-x" data-tags="cancel-x" horiz-adv-x="768" d="M704 640l-128 128-192-192-192 192-128-128 192-192-192-192 128-128 192 192 192-192 128 128-192 192 192 192z" />
</font>
</defs>
</svg>
